<?xml version="1.0" encoding="utf-8"?>
<!-- Generator: Adobe Illustrator 27.9.0, SVG Export Plug-In . SVG Version: 6.00 Build 0)  -->
<svg version="1.1" id="Layer_1" xmlns="http://www.w3.org/2000/svg" xmlns:xlink="http://www.w3.org/1999/xlink" x="0px" y="0px"
	 viewBox="0 0 460.1 105.4" style="enable-background:new 0 0 460.1 105.4;" xml:space="preserve">
<style type="text/css">
	.st0{fill:#FFFFFF;}
</style>
<g>
	<path class="st0" d="M22.7,103V25.4H0V2.2h79.6v23.2H56.9V103H22.7z"/>
	<path class="st0" d="M135.5,105.4c-10.6,0-20-2.2-28.1-6.7C99.3,94.1,93,87.9,88.4,80c-4.5-7.9-6.8-17-6.8-27.3
		c0-10.4,2.3-19.5,6.8-27.4s10.9-14.1,19-18.6c8.1-4.5,17.5-6.7,28.1-6.7c10.6,0,20,2.2,28.1,6.7c8.1,4.4,14.4,10.6,19,18.5
		s6.8,17.1,6.8,27.5c0,10.3-2.3,19.3-6.8,27.3c-4.5,7.9-10.9,14.1-19,18.6C155.6,103.1,146.2,105.4,135.5,105.4z M135.5,78.7
		c6.2,0,11.2-2.4,15.2-7.2c4-4.8,5.9-11.1,5.9-18.9c0-5.3-0.9-9.9-2.7-13.9c-1.8-4-4.3-7.2-7.5-9.5c-3.2-2.3-6.9-3.4-11.1-3.4
		c-6.2,0-11.2,2.5-15.1,7.4c-3.9,4.9-5.9,11.4-5.9,19.4c0,7.8,2,14.1,5.9,18.9C124.2,76.3,129.3,78.7,135.5,78.7z"/>
	<path class="st0" d="M217,103L194.2,2.2h33l9.5,62.9l9.8-45.7h34.1l10,45.7l9.5-62.9h33L310.2,103h-34.1l-12.5-55.2L251.2,103H217z
		"/>
	<path class="st0" d="M375.3,105.4c-6.2,0-12.4-0.8-18.8-2.3c-6.4-1.5-11.7-3.5-16.1-6.1l5.3-23.9c5.7,3,11,5,15.9,5.9
		c4.9,0.9,9.5,1.4,13.7,1.4c3.9,0,6.9-0.6,8.9-1.9c2-1.3,3-3,3-5.1c0-2-1.1-3.5-3.4-4.6c-2.2-1.1-5.2-2.2-8.7-3.2
		c-3.6-1-7.4-2.1-11.4-3.4c-4-1.3-7.8-3.1-11.4-5.3c-3.6-2.2-6.5-5.1-8.7-8.8c-2.2-3.7-3.4-8.3-3.4-13.8c0-7,1.7-13.1,5.1-18.2
		c3.4-5.1,8.3-9.1,14.7-11.9c6.3-2.8,13.8-4.2,22.4-4.2c5.8,0,11.4,0.8,16.9,2.3c5.5,1.5,9.9,3.5,13.3,6.1l-5,21.5
		c-5-2.1-9.5-3.5-13.4-4.5c-4-0.9-7.7-1.4-11.2-1.4c-4.1,0-7.2,0.6-9.4,1.8c-2.1,1.2-3.2,2.7-3.2,4.7c0,1.9,1.1,3.4,3.4,4.5
		c2.2,1.2,5.1,2.3,8.6,3.4c3.5,1.1,7.3,2.3,11.3,3.7c4,1.4,7.8,3.2,11.3,5.4c3.5,2.2,6.4,5.2,8.6,8.8c2.2,3.6,3.4,8.2,3.4,13.6
		c0,11.3-3.7,20.1-11.1,26.2C398.6,102.3,388.4,105.4,375.3,105.4z"/>
	<path class="st0" d="M427,103V2.2h33.1V103H427z"/>
</g>
</svg>
