<?xml version="1.0" encoding="UTF-8"?>
<svg id="Layer_1" data-name="Layer 1" xmlns="http://www.w3.org/2000/svg" viewBox="0 0 471 115.37">
  <defs>
    <style>
      .cls-1 {
        fill: #231f20;
        stroke-width: 0px;
      }
    </style>
  </defs>
  <path class="cls-1" d="m23.25,109.66V30.16H0V6.46h81.45v23.7h-23.25v79.5H23.25Z"/>
  <path class="cls-1" d="m138.75,112.06c-10.9,0-20.5-2.3-28.8-6.9-8.3-4.6-14.77-10.95-19.42-19.05-4.65-8.1-6.98-17.4-6.98-27.9s2.33-19.95,6.98-28.05,11.12-14.45,19.42-19.05c8.3-4.6,17.9-6.9,28.8-6.9s20.5,2.28,28.8,6.83c8.3,4.55,14.77,10.88,19.43,18.98,4.65,8.1,6.98,17.5,6.98,28.2s-2.33,19.8-6.98,27.9c-4.65,8.1-11.13,14.45-19.43,19.05-8.3,4.6-17.9,6.9-28.8,6.9Zm0-27.3c6.3,0,11.48-2.45,15.52-7.35,4.05-4.9,6.08-11.35,6.08-19.35,0-5.4-.93-10.15-2.78-14.25-1.85-4.1-4.4-7.32-7.65-9.67-3.25-2.35-7.03-3.52-11.32-3.52-6.3,0-11.45,2.53-15.45,7.57-4,5.05-6,11.68-6,19.87s2,14.45,6,19.35c4,4.9,9.2,7.35,15.6,7.35Z"/>
  <path class="cls-1" d="m218.52,115.37L193.95,0h35.44l10.24,71.94,10.55-52.32h36.7l10.71,52.32L307.84,0h35.44l-24.57,115.37h-36.7l-13.39-63.22-13.39,63.22h-36.7Z"/>
  <path class="cls-1" d="m384.15,112.06c-6.3,0-12.7-.78-19.2-2.33-6.5-1.55-12-3.62-16.5-6.23l5.4-24.45c5.8,3.1,11.22,5.13,16.27,6.08,5.05.95,9.72,1.42,14.03,1.42,4,0,7.02-.65,9.08-1.95,2.05-1.3,3.08-3.05,3.08-5.25,0-2-1.15-3.57-3.45-4.73-2.3-1.15-5.28-2.22-8.92-3.22-3.65-1-7.53-2.17-11.62-3.53-4.1-1.35-7.98-3.15-11.62-5.4-3.65-2.25-6.63-5.25-8.93-9-2.3-3.75-3.45-8.48-3.45-14.18,0-7.2,1.75-13.42,5.25-18.67,3.5-5.25,8.5-9.3,15-12.15,6.5-2.85,14.15-4.28,22.95-4.28,5.9,0,11.67.78,17.33,2.33,5.65,1.55,10.17,3.63,13.58,6.23l-5.1,22.05c-5.1-2.1-9.68-3.62-13.73-4.57-4.05-.95-7.88-1.43-11.47-1.43-4.2,0-7.4.6-9.6,1.8-2.2,1.2-3.3,2.8-3.3,4.8s1.15,3.45,3.45,4.65c2.3,1.2,5.25,2.35,8.85,3.45,3.6,1.1,7.45,2.35,11.55,3.75,4.1,1.4,7.95,3.25,11.55,5.55,3.6,2.3,6.55,5.3,8.85,9,2.3,3.7,3.45,8.35,3.45,13.95,0,11.6-3.78,20.55-11.33,26.85-7.55,6.3-18.03,9.45-31.42,9.45Z"/>
  <path class="cls-1" d="m437.1,109.66V6.46h33.9v103.2h-33.9Z"/>
</svg>